<?xml version="1.0" standalone="no"?>
<!DOCTYPE svg PUBLIC "-//W3C//DTD SVG 20010904//EN"
 "http://www.w3.org/TR/2001/REC-SVG-20010904/DTD/svg10.dtd">
<svg version="1.0" xmlns="http://www.w3.org/2000/svg"
 width="1024.000000pt" height="1024.000000pt" viewBox="0 0 1024.000000 1024.000000"
 preserveAspectRatio="xMidYMid meet">

<g transform="translate(0.000000,1024.000000) scale(0.100000,-0.100000)"
fill="#000000" stroke="none">
<path d="M4735 8104 c-16 -2 -70 -9 -120 -14 -322 -38 -704 -149 -987 -285
-332 -160 -574 -331 -839 -595 -408 -405 -671 -876 -794 -1421 -56 -246 -68
-389 -62 -704 6 -305 17 -398 77 -642 111 -448 287 -808 579 -1183 82 -106
319 -350 426 -440 273 -228 637 -427 985 -538 384 -123 859 -176 1230 -138
450 47 796 146 1165 334 394 202 718 477 993 846 333 445 548 1006 603 1574
19 192 7 545 -25 727 -163 937 -762 1733 -1621 2156 -322 158 -619 252 -970
305 -95 15 -568 28 -640 18z m105 -328 c0 -3 -30 -44 -67 -93 -67 -88 -143
-235 -181 -349 -61 -179 -74 -463 -33 -674 43 -217 115 -398 228 -575 55 -86
28 -64 -82 65 -187 221 -278 389 -336 625 -30 119 -37 352 -15 483 29 170 88
320 172 431 49 65 38 61 194 80 79 10 120 12 120 7z m622 -41 c73 -13 173 -35
221 -48 l88 -23 -86 -53 c-156 -95 -286 -237 -359 -392 -52 -110 -69 -200 -69
-364 0 -123 3 -151 27 -229 88 -291 318 -592 656 -857 342 -268 826 -486 1281
-578 129 -26 307 -51 372 -51 33 0 49 -5 53 -15 6 -16 -13 -265 -21 -273 -8
-8 -286 28 -415 54 -574 114 -1139 369 -1560 704 -119 95 -315 288 -408 402
-197 242 -316 485 -363 738 -17 89 -14 289 4 380 36 175 125 351 248 484 65
71 158 146 181 146 9 0 77 -11 150 -25z m-1357 -134 c-62 -123 -105 -345 -105
-546 0 -198 31 -358 107 -555 102 -265 273 -511 529 -760 270 -263 562 -467
954 -667 249 -127 290 -137 376 -97 31 15 35 14 130 -34 443 -222 908 -359
1415 -417 l56 -6 -8 -44 c-4 -24 -29 -107 -54 -185 l-46 -141 -52 7 c-196 24
-552 105 -797 181 -1009 313 -1925 891 -2454 1549 -228 284 -378 583 -437 872
-43 210 -34 508 21 686 l20 63 97 43 c111 49 242 99 261 100 8 0 4 -16 -13
-49z m2386 -282 c32 -23 59 -45 59 -49 0 -4 -36 -35 -80 -69 -268 -207 -452
-575 -477 -952 l-6 -100 -29 28 c-16 15 -55 59 -85 96 l-56 68 6 88 c27 371
210 687 512 880 44 28 84 51 88 51 5 0 35 -19 68 -41z m-704 -79 c-67 -84
-140 -214 -189 -334 l-29 -71 6 68 c11 130 84 259 206 365 33 28 62 52 65 52
2 0 -24 -36 -59 -80z m-2430 -162 c-1 -185 5 -248 45 -428 67 -305 234 -640
474 -946 183 -235 458 -509 690 -689 700 -544 1711 -994 2589 -1151 83 -15
151 -28 153 -30 10 -8 -203 -344 -218 -344 -23 0 -222 45 -335 76 -666 181
-1314 480 -1925 887 -292 195 -493 358 -745 605 -353 347 -594 666 -757 1002
-158 325 -228 592 -228 865 l0 121 38 36 c31 30 212 178 217 178 2 0 2 -82 2
-182z m3535 -185 c-100 -86 -227 -263 -285 -399 -82 -188 -108 -304 -116 -522
l-6 -172 -78 50 c-42 27 -81 60 -86 72 -29 81 -17 330 24 487 61 230 216 460
404 601 l66 49 63 -62 63 -62 -49 -42z m-4053 -499 c50 -186 193 -506 331
-736 306 -514 867 -1081 1464 -1477 642 -428 1328 -742 2048 -937 l137 -37
-27 -31 c-15 -17 -60 -61 -101 -97 l-75 -67 -87 24 c-141 37 -500 160 -663
226 -324 131 -635 287 -966 486 -397 238 -850 577 -1129 846 -580 559 -930
1092 -1111 1694 -22 72 -40 139 -40 148 0 9 35 68 77 132 l77 116 22 -105 c12
-58 31 -141 43 -185z m4375 207 c31 -43 56 -82 56 -85 0 -3 -28 -40 -63 -83
-123 -153 -194 -331 -204 -514 -6 -104 2 -133 52 -179 l27 -25 259 -3 c142 -2
259 -5 259 -7 0 -2 6 -34 14 -72 7 -37 16 -87 20 -110 l6 -43 -43 0 c-60 0
-263 27 -379 51 -127 25 -340 87 -355 102 -26 26 -46 159 -46 307 1 220 42
359 164 545 43 67 157 195 173 195 2 0 30 -36 60 -79z m256 -481 c16 -33 30
-64 30 -70 0 -6 -31 -10 -76 -10 l-76 0 23 38 c29 49 63 102 66 102 2 0 16
-27 33 -60z m-5050 -201 c0 -19 158 -338 211 -426 28 -47 49 -86 47 -88 -4 -4
-228 -40 -308 -50 -30 -3 -63 -9 -74 -12 -17 -5 -18 0 -12 73 17 185 44 316
92 447 23 59 44 87 44 56z m507 -879 l52 -69 -32 -10 c-71 -23 -241 -61 -392
-90 -205 -38 -252 -44 -259 -33 -3 5 -8 45 -12 88 l-7 80 129 17 c142 20 382
62 429 76 17 5 32 9 35 10 3 0 28 -31 57 -69z m329 -402 c27 -29 52 -58 57
-65 5 -8 -26 -23 -105 -48 -289 -94 -543 -164 -703 -194 -88 -17 -97 -17 -104
-2 -10 18 -51 149 -51 162 0 4 17 11 38 14 228 36 655 132 759 170 21 7 43 14
49 14 6 1 33 -23 60 -51z m393 -387 l65 -59 -80 -40 c-189 -95 -543 -223 -858
-311 -60 -17 -117 -31 -127 -31 -16 0 -119 151 -119 175 0 6 65 25 145 43 222
50 511 133 699 201 93 34 176 66 185 71 23 13 20 15 90 -49z m409 -333 c23
-18 41 -35 41 -38 1 -11 -250 -172 -374 -241 -171 -95 -418 -214 -582 -280
l-133 -53 -36 34 c-45 44 -148 169 -143 174 2 3 71 23 154 46 306 86 707 235
910 338 55 28 105 51 111 51 7 1 30 -14 52 -31z m394 -279 c26 -17 48 -32 48
-34 0 -13 -332 -268 -525 -402 -147 -103 -472 -303 -492 -303 -19 0 -223 143
-220 154 2 4 72 36 157 70 306 123 634 300 870 469 58 42 107 76 109 76 2 1
26 -13 53 -30z m434 -261 l67 -42 -64 -59 c-113 -104 -300 -261 -439 -369
-169 -131 -393 -288 -411 -288 -18 0 -209 83 -209 91 0 4 44 33 98 64 240 143
553 369 781 564 52 45 98 81 102 81 4 0 38 -19 75 -42z m674 -337 l81 -40 -93
-103 c-51 -57 -167 -178 -259 -270 l-166 -168 -173 0 c-102 0 -170 4 -164 9 5
5 56 46 114 92 145 114 281 234 440 388 74 71 136 130 137 130 1 1 38 -17 83
-38z m526 -211 c54 -23 110 -45 123 -51 22 -9 17 -13 -60 -50 -149 -73 -413
-169 -461 -169 -6 0 23 35 63 78 41 43 103 113 139 154 36 42 72 77 81 77 9 1
60 -17 115 -39z"/>
<path d="M3180 1979 c-242 -10 -276 -15 -303 -51 -24 -33 -11 -62 35 -77 68
-21 645 -55 1373 -82 627 -23 1637 -1 2380 52 340 24 371 29 388 66 10 22 8
28 -15 48 -35 30 -67 34 -378 45 -315 11 -3185 10 -3480 -1z"/>
</g>
</svg>
